<svg xmlns="http://www.w3.org/2000/svg" version="1.0" width="500.000000ptpx" height="500.000000ptpx" viewBox="0 0 500.000000 500.000000" preserveAspectRatio="xMidYMid meet" transform="rotate(0) scale(1, 1)">

<g transform="translate(0.000000,500.000000) scale(0.100000,-0.100000)" fill="#ffffff" stroke="none">
<path d="M740 3315 c-105 -16 -158 -28 -234 -55 -64 -22 -86 -36 -86 -55 0 -24 27 -23 106 5 129 46 257 63 454 64 292 0 489 -47 651 -155 135 -91 221 -241 195 -343 l-6 -26 -835 0 -835 0 -6 26 c-24 94 69 265 182 335 36 22 45 55 19 65 -18 7 -113 -63 -155 -114 -77 -93 -119 -220 -99 -294 7 -28 7 -54 0 -90 -9 -41 -8 -56 5 -83 8 -18 22 -36 30 -39 10 -4 14 -23 14 -69 0 -43 6 -75 20 -101 l19 -39 -29 -33 c-49 -56 -53 -148 -9 -207 l21 -30 -30 -23 c-64 -51 -79 -171 -33 -262 25 -49 83 -99 131 -112 47 -13 1463 -13 1510 0 48 13 106 63 131 112 46 91 31 211 -33 262 l-30 23 22 31 c27 36 36 107 21 155 -7 20 -28 50 -48 67 -32 28 -34 34 -24 56 6 14 11 49 11 78 0 50 2 55 35 77 52 35 68 76 54 137 -7 36 -7 62 0 90 28 104 -54 272 -180 369 -91 70 -234 132 -374 162 -152 33 -426 40 -585 16z m1088 -666 c3 -31 -2 -40 -25 -57 -46 -32 -133 -56 -208 -56 -62 -1 -81 4 -170 44 -133 59 -166 59 -300 0 -128 -56 -152 -56 -280 0 -134 59 -167 59 -300 0 -89 -40 -108 -45 -170 -44 -75 0 -162 24 -207 56 -21 14 -28 28 -28 52 0 18 3 36 7 39 3 4 383 6 842 5 l836 -3 3 -36z m-999 -121 c132 -58 180 -58 312 0 57 25 112 42 134 42 22 0 77 -17 134 -42 86 -38 104 -43 176 -43 44 0 97 4 118 8 l37 8 0 -40 c0 -63 -39 -100 -114 -110 -46 -6 -65 -14 -83 -35 -21 -25 -23 -36 -23 -137 0 -96 -2 -111 -20 -129 -45 -45 -100 -13 -100 59 0 69 -17 117 -52 146 -27 23 -39 26 -76 22 -30 -3 -53 -13 -71 -31 -25 -26 -26 -31 -31 -177 -5 -143 -6 -152 -29 -170 -31 -25 -47 -24 -76 6 -25 24 -25 27 -25 187 0 157 -1 165 -24 199 -33 49 -67 60 -162 57 -71 -3 -79 -5 -79 -23 0 -18 8 -20 83 -25 76 -5 86 -7 108 -33 21 -24 24 -38 24 -103 l0 -74 -367 0 c-420 0 -427 1 -451 74 -16 49 -1 110 31 128 15 8 88 11 245 9 227 -3 258 2 245 35 -4 11 -41 14 -204 14 -262 0 -289 11 -289 114 0 25 2 46 4 46 2 0 33 -7 67 -16 97 -25 176 -16 289 34 57 25 111 42 134 42 24 0 75 -16 135 -42z m936 -234 c34 -22 49 -81 33 -130 -18 -54 -61 -74 -155 -74 l-73 0 0 88 c0 117 5 122 143 130 15 1 39 -5 52 -14z m-445 -84 c15 -15 20 -33 20 -70 l0 -50 -60 0 -60 0 0 48 c0 52 5 63 35 80 29 16 42 15 65 -8z m-330 -230 c0 -72 19 -114 60 -135 37 -19 73 -19 111 1 39 19 59 68 59 139 l0 55 64 0 c58 0 67 -3 94 -30 25 -25 39 -30 76 -30 36 0 52 6 79 30 33 29 38 30 128 30 103 0 131 -9 163 -53 16 -21 21 -42 20 -82 -2 -64 -23 -105 -77 -149 l-39 -31 -743 0 -743 0 -39 31 c-54 44 -75 85 -77 149 -1 59 20 99 65 122 18 10 124 13 412 13 l387 0 0 -60z" fill="#ffffff"/>
<path d="M964 3147 c-3 -8 -4 -30 -2 -49 2 -25 8 -33 23 -33 17 0 20 7 20 45 0 35 -4 45 -18 48 -9 2 -20 -3 -23 -11z" fill="#ffffff"/>
<path d="M620 3106 c-15 -28 -8 -56 14 -56 20 0 50 46 42 65 -9 23 -41 18 -56 -9z" fill="#ffffff"/>
<path d="M1294 3115 c-8 -19 22 -65 42 -65 22 0 29 28 14 56 -15 27 -47 32 -56 9z" fill="#ffffff"/>
<path d="M420 2933 c-25 -32 -23 -57 6 -61 16 -2 25 5 34 27 13 31 8 61 -9 61 -5 0 -19 -12 -31 -27z" fill="#ffffff"/>
<path d="M781 2929 c-22 -36 -18 -59 10 -59 26 0 55 56 38 76 -17 21 -27 17 -48 -17z" fill="#ffffff"/>
<path d="M1141 2946 c-17 -20 12 -76 38 -76 28 0 32 23 10 59 -21 34 -31 38 -48 17z" fill="#ffffff"/>
<path d="M1504 2946 c-10 -25 16 -76 38 -76 28 0 33 28 11 58 -24 32 -41 38 -49 18z" fill="#ffffff"/>
<path d="M2060 2445 l0 -245 80 0 c129 0 160 28 160 144 0 53 -4 69 -24 93 -24 28 -24 29 -5 52 14 17 19 39 19 85 -1 95 -27 116 -149 116 l-81 0 0 -245z m150 156 c27 -51 2 -111 -46 -111 -23 0 -24 3 -24 65 l0 65 30 0 c19 0 33 -7 40 -19z m12 -224 c5 -22 4 -53 0 -70 -7 -28 -13 -32 -45 -35 l-37 -3 0 76 0 76 37 -3 c34 -3 38 -6 45 -41z" fill="#ffffff"/>
<path d="M2350 2445 l0 -245 40 0 40 0 0 245 0 245 -40 0 -40 0 0 -245z" fill="#ffffff"/>
<path d="M2460 2655 c0 -34 1 -35 40 -35 l40 0 0 -210 0 -210 40 0 40 0 0 210 0 210 40 0 c39 0 40 1 40 35 l0 35 -120 0 -120 0 0 -35z" fill="#ffffff"/>
<path d="M2730 2445 l0 -245 105 0 105 0 0 35 0 35 -65 0 -65 0 0 69 0 70 53 3 c50 3 52 4 55 35 l3 32 -53 3 -53 3 -3 68 -3 67 66 0 65 0 0 35 0 35 -105 0 -105 0 0 -245z" fill="#ffffff"/>
<path d="M3100 2658 c0 -18 3 -50 6 -70 5 -31 11 -38 29 -38 25 0 35 30 35 101 0 38 -1 39 -35 39 -33 0 -35 -2 -35 -32z" fill="#ffffff"/>
<path d="M3230 2445 l0 -245 35 0 35 0 1 168 1 167 45 -167 46 -168 39 0 38 0 0 245 0 245 -35 0 -34 0 -3 -132 -3 -132 -34 132 -35 132 -48 0 -48 0 0 -245z" fill="#ffffff"/>
<path d="M3530 2636 c0 -69 7 -86 35 -86 19 0 23 7 29 53 10 87 10 87 -29 87 l-35 0 0 -54z" fill="#ffffff"/>
<path d="M3770 2446 l0 -246 75 0 c81 0 127 16 145 49 5 11 10 53 10 94 0 65 -3 78 -23 97 -23 22 -23 24 -6 41 37 37 36 135 0 181 -17 20 -29 23 -110 26 l-91 4 0 -246z m138 162 c17 -17 15 -84 -4 -102 -8 -9 -26 -16 -40 -16 -23 0 -24 3 -24 65 0 65 0 65 28 65 15 0 33 -5 40 -12z m12 -207 c5 -11 10 -36 10 -56 0 -55 -15 -75 -55 -75 l-35 0 0 75 0 75 35 0 c24 0 37 -6 45 -19z" fill="#ffffff"/>
<path d="M4050 2476 c0 -200 1 -215 21 -239 48 -62 158 -55 191 13 15 30 18 65 18 238 l0 202 -40 0 -40 0 0 -205 c0 -193 -1 -205 -20 -215 -15 -8 -24 -6 -40 10 -19 19 -20 33 -20 215 l0 195 -35 0 -35 0 0 -214z" fill="#ffffff"/>
<path d="M4330 2445 l0 -245 35 0 35 0 1 173 1 172 46 -172 47 -173 42 0 43 0 0 245 0 245 -35 0 -34 0 -3 -137 -3 -138 -17 55 c-9 30 -26 92 -38 138 l-22 82 -49 0 -49 0 0 -245z" fill="#ffffff"/>
</g>
</svg>